<svg width="170" height="170" viewBox="0 0 170 170" fill="none" xmlns="http://www.w3.org/2000/svg">
<path d="M84.9522 0.833374C68.3056 0.833374 52.0328 5.76966 38.1917 15.018C24.3506 24.2664 13.5627 37.4114 7.19234 52.7909C0.82196 68.1703 -0.844821 85.0934 2.40277 101.42C5.65036 117.747 13.6665 132.744 25.4374 144.515C37.2083 156.286 52.2054 164.302 68.5321 167.549C84.8588 170.797 101.782 169.13 117.161 162.76C132.541 156.39 145.686 145.602 154.934 131.761C164.183 117.919 169.119 101.647 169.119 85C169.12 73.9469 166.943 63.0018 162.714 52.7898C158.484 42.5778 152.285 33.299 144.469 25.4832C136.653 17.6674 127.374 11.4678 117.162 7.23831C106.95 3.00887 96.0054 0.832457 84.9522 0.833374V0.833374ZM111.713 128.367C111.398 129.152 110.919 129.861 110.307 130.446C109.696 131.032 108.966 131.479 108.168 131.759C107.369 132.04 106.52 132.146 105.677 132.071C104.834 131.996 104.016 131.742 103.28 131.325L80.4311 113.571L65.7666 127.1C65.4263 127.352 65.0283 127.513 64.6091 127.571C64.1899 127.628 63.7631 127.579 63.3678 127.428L66.179 102.275L66.269 102.346L66.3264 101.85C66.3264 101.85 107.442 64.4167 109.117 62.8218C110.812 61.231 110.253 60.886 110.253 60.886C110.35 58.9457 107.21 60.886 107.21 60.886L52.7332 95.9333L30.0462 88.2068C30.0462 88.2068 26.5617 86.9569 26.2334 84.2089C25.8883 81.4819 30.1597 80.0005 30.1597 80.0005L120.361 44.1665C120.361 44.1665 127.776 40.8628 127.776 46.3339L111.713 128.367Z" fill="#FF00AA"/>
</svg>
