<svg width="460" height="357" viewBox="0 0 460 357" fill="none" xmlns="http://www.w3.org/2000/svg">
<path d="M304.237 309.947L307.5 344.028V347.631C307.5 352.517 314.42 356.389 322.965 356.389C331.511 356.389 338.431 352.468 338.431 347.631V344.028L341.398 309.593L304.237 309.947Z" fill="white" stroke="#263238" stroke-linecap="round" stroke-linejoin="round"/>
<path d="M338.579 342.183L340.29 322.333C337.988 325.888 331.117 328.441 322.99 328.441C314.432 328.441 307.278 325.583 305.37 321.735L307.315 342.061C310.467 344.663 316.292 346.422 322.99 346.422C329.688 346.422 335.426 344.748 338.579 342.183Z" fill="#FF00AA" stroke="#263238" stroke-linecap="round" stroke-linejoin="round"/>
<path d="M304.853 316.372V316.14L304.692 314.772L304.853 316.372Z" fill="white" stroke="#263238" stroke-linecap="round" stroke-linejoin="round"/>
<path d="M341.989 304.89C338.714 300.786 331.437 297.915 322.965 297.915C314.494 297.915 307.217 300.786 303.929 304.89H302.07V309.776C302.07 316.324 311.428 321.625 323.002 321.625C334.577 321.625 343.935 316.324 343.935 309.776V304.89H341.989Z" fill="#FF00AA" stroke="#263238" stroke-linecap="round" stroke-linejoin="round"/>
<path opacity="0.2" d="M341.989 304.731C338.714 300.615 331.437 297.757 322.965 297.757C314.494 297.757 307.217 300.615 303.929 304.731H302.07V309.617C302.07 316.165 311.428 321.466 323.002 321.466C334.577 321.466 343.935 316.165 343.935 309.617V304.731H341.989Z" fill="black"/>
<path d="M322.965 316.739C334.506 316.739 343.861 311.434 343.861 304.89C343.861 298.346 334.506 293.042 322.965 293.042C311.425 293.042 302.07 298.346 302.07 304.89C302.07 311.434 311.425 316.739 322.965 316.739Z" fill="white" stroke="#263238" stroke-linecap="round" stroke-linejoin="round"/>
<path d="M339.588 298.282C336.719 294.691 330.366 292.174 322.965 292.174C315.565 292.174 309.211 294.678 306.342 298.282H304.754V302.533C304.754 308.249 312.918 312.879 323.002 312.879C333.087 312.879 341.251 308.249 341.251 302.533V298.282H339.588Z" fill="#FFAEE8" stroke="#263238" stroke-linecap="round" stroke-linejoin="round"/>
<path d="M322.965 308.628C333.044 308.628 341.214 303.996 341.214 298.282C341.214 292.568 333.044 287.936 322.965 287.936C312.887 287.936 304.717 292.568 304.717 298.282C304.717 303.996 312.887 308.628 322.965 308.628Z" fill="white" stroke="#263238" stroke-linecap="round" stroke-linejoin="round"/>
<path d="M138.783 197.812C138.783 197.812 140.211 196.872 149.274 200.646C158.337 204.421 161.895 203.602 170.712 202.063C181.301 200.231 190.093 198.399 191.152 202.649C192.986 209.978 185.574 209.893 172.238 211.31C158.903 212.727 151.17 208.684 146.885 206.79C144.913 205.987 143.003 205.04 141.172 203.956L138.783 197.812Z" fill="white" stroke="#263238" stroke-linecap="round" stroke-linejoin="round"/>
<path d="M118.294 201.599C118.294 201.599 130.213 215.304 135.446 211.518C140.679 207.731 140.211 195.455 135.446 191.668C130.681 187.881 117.346 194.978 118.294 201.599Z" fill="white" stroke="#263238" stroke-linecap="round" stroke-linejoin="round"/>
<path d="M154.532 163.781C154.532 163.781 155.012 176.546 151.675 185.047C148.338 193.549 142.145 199.229 141.197 203.956C140.248 208.684 140.716 215.304 135.951 217.198C131.186 219.091 131.186 215.781 131.666 211.994C132.146 208.207 133.094 194.038 133.094 194.038L117.346 203.48C117.346 203.48 121.631 215.304 112.58 216.721C103.53 218.138 92.5713 204.433 91.143 194.074C89.7146 183.716 95.428 160.507 105.439 154.363C115.449 148.219 128.305 149.171 134.991 149.171C141.677 149.171 151.651 153.862 154.532 163.781Z" fill="white" stroke="#263238" stroke-linecap="round" stroke-linejoin="round"/>
<path d="M116.545 150.662C116.545 150.662 114.083 151.883 109.785 158.589C105.488 165.296 114.083 171.073 118.7 168.032C123.318 164.99 119.303 158.589 122.69 155.536C124.638 153.896 125.945 151.631 126.384 149.135L116.545 150.662Z" fill="#020202"/>
<path d="M102.73 160.104C101.629 160.884 100.704 161.883 100.015 163.038C99.3261 164.193 98.8876 165.478 98.728 166.81C98.4201 171.073 106.116 163.146 107.027 159.481C107.938 155.816 102.73 160.104 102.73 160.104Z" fill="#020202"/>
<path d="M130.213 150.552C129.12 152.521 128.588 154.748 128.672 156.994C128.757 159.24 129.455 161.422 130.693 163.304C134.978 169.925 144.509 172.759 148.314 168.032C152.118 163.304 153.559 160.947 152.131 158.589C150.702 156.232 136.887 146.765 130.213 150.552Z" fill="#FF00AA" stroke="#263238" stroke-linecap="round" stroke-linejoin="round"/>
<path d="M165.466 127.392C163.657 127.587 161.828 127.392 160.102 126.821C158.377 126.249 156.796 125.315 155.468 124.082C150.702 119.831 146.405 110.376 144.509 110.84C142.613 111.305 135.889 125.022 135.889 125.022C135.889 125.022 124.45 125.975 123.502 129.273C122.554 132.571 127.787 148.182 132.122 154.803C134.143 157.752 136.833 160.189 139.977 161.918C143.121 163.647 146.63 164.62 150.222 164.758C155.936 164.758 173.088 166.175 175.477 160.495C177.866 154.815 175.945 137.811 175.945 137.811C175.945 137.811 183.579 130.25 180.242 128.833C176.905 127.416 165.466 127.392 165.466 127.392Z" fill="white" stroke="#263238" stroke-linecap="round" stroke-linejoin="round"/>
<path d="M163.151 151.04C162.572 150.295 162.018 149.538 161.477 148.756C160.578 147.437 158.447 145.421 154.347 146.704C148.511 148.524 144.496 154.033 150.973 158.589C157.068 162.926 169.308 159.017 163.151 151.04Z" fill="#020202"/>
<path d="M135.926 125.022C135.926 125.022 142.6 128.809 146.405 127.392C150.21 125.975 147.833 109.9 144.509 110.84C141.184 111.781 135.446 118.878 135.926 125.022Z" fill="white" stroke="#263238" stroke-linecap="round" stroke-linejoin="round"/>
<path d="M180.242 128.809C180.242 128.809 174.085 128.332 170.231 132.583C166.377 136.834 168.803 141.134 174.048 142.038C179.294 142.942 182.138 128.809 180.242 128.809Z" fill="white" stroke="#263238" stroke-linecap="round" stroke-linejoin="round"/>
<path d="M143.08 155.279C143.08 155.279 136.924 150.552 138.315 154.326C139.707 158.101 142.12 158.589 144.472 157.637C146.824 156.684 143.08 155.279 143.08 155.279Z" fill="#FF00AA" stroke="#263238" stroke-linecap="round" stroke-linejoin="round"/>
<path d="M139.682 143.43C139.325 144.652 138.315 145.507 137.429 145.263C136.542 145.018 136.111 143.797 136.468 142.539C136.825 141.28 137.835 140.462 138.722 140.706C139.608 140.951 140.039 142.184 139.682 143.43Z" fill="#263238"/>
<path d="M154.372 154.583C153.227 155.242 151.909 155.145 151.466 154.351C151.023 153.557 151.54 152.396 152.697 151.737C153.12 151.403 153.655 151.24 154.194 151.281C154.733 151.322 155.236 151.563 155.603 151.957C156.046 152.751 155.505 153.923 154.372 154.583Z" fill="white"/>
<path d="M111.632 184.583C111.632 184.583 110.204 194.978 112.1 199.241C113.996 203.504 115.917 219.567 119.734 220.007C123.552 220.447 122.111 211.457 122.111 210.076C122.111 208.696 122.591 193.537 122.591 193.537C122.591 193.537 125.928 186.44 127.824 182.665" fill="white"/>
<path d="M111.632 184.583C111.632 184.583 110.204 194.978 112.1 199.241C113.996 203.504 115.917 219.567 119.734 220.007C123.552 220.447 122.111 211.457 122.111 210.076C122.111 208.696 122.591 193.537 122.591 193.537C122.591 193.537 125.928 186.44 127.824 182.665" stroke="#263238" stroke-linecap="round" stroke-linejoin="round"/>
<path d="M95.9082 184.107C95.9082 184.107 108.776 180.32 110.204 194.502" stroke="#263238" stroke-linecap="round" stroke-linejoin="round"/>
<path d="M133.07 194.074C133.07 194.074 144.029 188.394 144.509 176.106" stroke="#263238" stroke-linecap="round" stroke-linejoin="round"/>
<path d="M0.615662 213.411L8.73012 211.591" stroke="#263238" stroke-linecap="round" stroke-linejoin="round"/>
<path d="M437.651 328.392L427.05 322.895" stroke="#263238" stroke-linecap="round" stroke-linejoin="round"/>
<path d="M13.2614 210.577L44.9312 203.492" stroke="#263238" stroke-linecap="round" stroke-linejoin="round"/>
<path d="M420.487 319.487L162.006 185.524" stroke="#263238" stroke-linecap="round" stroke-linejoin="round"/>
<path d="M68.3388 260.916L133.772 242.507C135.851 242.289 137.944 242.789 139.694 243.924L246.167 311.413C246.621 311.704 246.974 312.126 247.177 312.622C247.381 313.118 247.426 313.665 247.307 314.187C247.187 314.71 246.909 315.183 246.509 315.543C246.109 315.904 245.607 316.133 245.071 316.201L155.529 343.869L68.3388 260.916Z" fill="#FF00AA" stroke="#263238" stroke-linecap="round" stroke-linejoin="round"/>
<path d="M106.596 264.812L115.868 271.14L126.581 268.135L117.321 261.807L106.596 264.812Z" fill="#263238"/>
<path d="M112.371 282.524L103.099 276.185L92.3866 279.189L101.659 285.529L112.371 282.524Z" fill="#263238"/>
<path d="M129.893 268.684L139.153 275.012L149.865 272.019L140.606 265.679L129.893 268.684Z" fill="#263238"/>
<path d="M140.692 276.062L149.951 282.39L160.664 279.397L151.404 273.057L140.692 276.062Z" fill="#263238"/>
<path d="M117.395 272.19L126.655 278.518L137.367 275.513L128.107 269.185L117.395 272.19Z" fill="#263238"/>
<path d="M94.0982 268.306L103.358 274.645L114.07 271.64L104.811 265.313L94.0982 268.306Z" fill="#263238"/>
<path d="M168.04 308.53L158.768 302.203L148.067 305.195L157.327 311.535L168.04 308.53Z" fill="#263238"/>
<path d="M155.529 312.036L146.27 305.696L135.557 308.701L144.817 315.041L155.529 312.036Z" fill="#263238"/>
<path d="M123.158 289.902L113.898 283.575L103.185 286.567L112.445 292.907L123.158 289.902Z" fill="#263238"/>
<path d="M178.826 315.908L169.566 309.581L158.854 312.586L168.113 318.913L178.826 315.908Z" fill="#263238"/>
<path d="M133.956 297.28L124.684 290.953L113.972 293.945L123.244 300.285L133.956 297.28Z" fill="#263238"/>
<path d="M144.743 304.658L135.483 298.318L124.771 301.323L134.03 307.663L144.743 304.658Z" fill="#263238"/>
<path d="M151.478 283.44L160.738 289.768L171.45 286.775L162.191 280.435L151.478 283.44Z" fill="#263238"/>
<path d="M104.897 275.684L114.157 282.023L124.869 279.018L115.61 272.691L104.897 275.684Z" fill="#263238"/>
<path d="M191.324 312.402L182.064 306.075L171.352 309.08L180.611 315.407L191.324 312.402Z" fill="#263238"/>
<path d="M158.952 290.269L149.693 283.941L138.98 286.946L148.24 293.274L158.952 290.269Z" fill="#263238"/>
<path d="M135.656 286.396L126.396 280.069L115.683 283.074L124.943 289.401L135.656 286.396Z" fill="#263238"/>
<path d="M90.7859 267.768L85.3681 264.055L78.0417 266.095L82.3267 270.138L90.7859 267.768Z" fill="#263238"/>
<path d="M101.572 275.146L92.3128 268.807L83.5334 271.274L90.7859 278.09L90.8598 278.151L101.572 275.146Z" fill="#263238"/>
<path d="M128.181 279.568L137.453 285.896L148.166 282.891L138.894 276.563L128.181 279.568Z" fill="#263238"/>
<path d="M146.454 293.774L137.195 287.447L126.482 290.452L135.742 296.779L146.454 293.774Z" fill="#263238"/>
<path d="M193.036 301.531L183.776 295.191L173.063 298.196L182.323 304.524L193.036 301.531Z" fill="#263238"/>
<path d="M162.265 290.818L171.536 297.146L182.249 294.153L172.989 287.813L162.265 290.818Z" fill="#263238"/>
<path d="M180.538 305.024L171.278 298.697L160.565 301.702L169.825 308.029L180.538 305.024Z" fill="#263238"/>
<path d="M169.739 297.647L160.479 291.319L149.767 294.324L159.039 300.651L169.739 297.647Z" fill="#263238"/>
<path d="M157.241 301.152L147.981 294.825L137.269 297.818L146.528 304.157L157.241 301.152Z" fill="#263238"/>
<path d="M110.66 293.408L101.4 287.068L100.575 287.3L107.877 294.177L110.66 293.408Z" fill="#263238"/>
<path d="M192.863 313.453L182.151 316.458L193.257 324.056L203.699 320.855L192.863 313.453Z" fill="#263238"/>
<path d="M180.353 316.959L169.64 319.964L181.079 327.769L191.509 324.581L180.353 316.959Z" fill="#263238"/>
<path d="M132.245 308.164L122.985 301.824L117.604 303.339L124.918 310.216L132.245 308.164Z" fill="#263238"/>
<path d="M203.834 308.909L194.562 302.569L183.85 305.574L193.122 311.902L203.834 308.909Z" fill="#263238"/>
<path d="M143.031 315.542L133.772 309.202L126.125 311.352L133.427 318.229L143.031 315.542Z" fill="#263238"/>
<path d="M153.83 322.92L144.57 316.58L134.634 319.365L141.948 326.242L153.83 322.92Z" fill="#263238"/>
<path d="M166.328 319.414L157.068 313.086L146.356 316.079L155.615 322.419L166.328 319.414Z" fill="#263238"/>
<path d="M226.835 309.471L220.679 305.647L207.134 309.446L217.601 316.604L225.752 314.161C226.289 314.115 226.797 313.901 227.204 313.55C227.61 313.198 227.894 312.728 228.014 312.207C228.135 311.686 228.086 311.14 227.874 310.649C227.662 310.157 227.298 309.745 226.835 309.471Z" fill="#263238"/>
<path d="M155.357 323.958L143.154 327.378L152.759 336.417L167.153 332.02L155.357 323.958Z" fill="#263238"/>
<path d="M209.252 298.453L196.36 302.068L205.62 308.408L219.103 304.621L209.252 298.453Z" fill="#263238"/>
<path d="M205.361 309.947L194.649 312.952L205.435 320.33L215.877 317.142L205.361 309.947Z" fill="#263238"/>
<path d="M130.078 256.75L138.832 254.295L133.181 250.753L124.734 253.11L130.078 256.75Z" fill="#263238"/>
<path d="M179.331 328.307L167.855 320.464L157.142 323.457L168.889 331.495L179.331 328.307Z" fill="#263238"/>
<path d="M131.604 257.801L140.864 264.14L150.308 261.49L140.458 255.321L131.604 257.801Z" fill="#263238"/>
<path d="M153.19 272.557L162.449 278.884L173.236 275.867L163.397 269.698L153.19 272.557Z" fill="#263238"/>
<path d="M142.391 265.179L151.663 271.518L161.772 268.684L151.934 262.504L142.391 265.179Z" fill="#263238"/>
<path d="M163.976 279.935L173.236 286.274L184.699 283.062L174.861 276.893L163.976 279.935Z" fill="#263238"/>
<path d="M174.775 287.313L184.035 293.652L196.163 290.244L186.325 284.076L174.775 287.313Z" fill="#263238"/>
<path d="M197.788 291.27L185.561 294.691L194.821 301.03L207.627 297.439L197.788 291.27Z" fill="#263238"/>
<path d="M119.106 261.306L128.366 267.634L139.079 264.641L129.819 258.302L119.106 261.306Z" fill="#263238"/>
<path d="M97.4843 284.393L99.3683 286.164L99.8731 286.03L97.4843 284.393Z" fill="#263238"/>
<path d="M92.5713 267.268L103.284 264.263L97.8907 260.574L87.1535 263.566L92.5713 267.268Z" fill="#263238"/>
<path d="M105.069 263.762L115.782 260.757L110.413 257.092L99.6761 260.073L105.069 263.762Z" fill="#263238"/>
<path d="M112.211 256.591L117.567 260.256L128.292 257.251L122.936 253.599L112.211 256.591Z" fill="#263238"/>
<path d="M121.446 300.786L112.186 294.446L109.083 295.313L116.398 302.203L121.446 300.786Z" fill="#263238"/>
<path d="M155.468 343.869L127.147 230.133C126.502 227.548 125.111 225.205 123.145 223.391L46.8028 152.775C46.4784 152.476 46.0658 152.288 45.6258 152.239C45.1858 152.19 44.7415 152.283 44.3583 152.503C43.9751 152.723 43.6733 153.059 43.4971 153.462C43.321 153.865 43.2798 154.314 43.3797 154.742L68.3388 260.916L155.468 343.869Z" fill="#FF00AA" stroke="#263238" stroke-linecap="round" stroke-linejoin="round"/>
<path d="M112.667 218.737L121.397 226.31C121.397 226.31 124.118 226.848 126.839 240.37" stroke="#263238" stroke-width="0.5" stroke-linecap="round" stroke-linejoin="round"/>
<path d="M128.477 247.393L144.57 316.58" stroke="#263238" stroke-width="0.5" stroke-linecap="round" stroke-linejoin="round"/>
<path d="M81.3539 215.646C85.1341 224.759 84.7893 233.541 80.5782 235.264C76.367 236.986 69.8779 230.988 66.0978 221.827C62.3176 212.666 62.6623 203.932 66.8735 202.222C71.0846 200.512 77.5737 206.534 81.3539 215.646Z" fill="#FF94E1"/>
<path opacity="0.6" d="M81.3416 215.622C85.1218 224.734 84.777 233.517 80.5659 235.239C76.3547 236.962 69.8779 230.964 66.0854 221.803C62.2929 212.641 62.6623 203.92 66.8735 202.197C71.0846 200.475 77.5614 206.509 81.3416 215.622Z" fill="#FFA1E4"/>
<path d="M78.5955 230.508C81.5887 229.285 81.8342 223.04 79.144 216.558C76.4538 210.077 71.8465 205.814 68.8533 207.037C65.8601 208.259 65.6145 214.505 68.3047 220.986C70.9949 227.467 75.6023 231.731 78.5955 230.508Z" stroke="#263238" stroke-miterlimit="10"/>
<path d="M87.1904 253.012C89.1605 257.74 88.3479 262.552 85.3927 263.762C82.4375 264.971 78.448 262.113 76.4779 257.398C74.5077 252.683 75.3327 247.858 78.2879 246.648C81.2431 245.439 85.2326 248.297 87.1904 253.012Z" fill="#263238"/>
<path d="M83.1147 261.013C81.2554 261.013 79.236 259.34 78.1894 256.726C77.6002 255.382 77.3957 253.902 77.5984 252.45C77.6525 251.845 77.865 251.264 78.2148 250.765C78.5647 250.265 79.0397 249.866 79.5931 249.604C81.6741 248.749 84.3337 250.545 85.639 253.684C86.9318 256.823 86.3162 259.951 84.2352 260.806C83.8787 260.946 83.4982 261.016 83.1147 261.013ZM80.6521 250.618C80.4405 250.616 80.2309 250.658 80.0364 250.74C79.6826 250.928 79.3834 251.204 79.1678 251.539C78.9521 251.875 78.8272 252.26 78.8051 252.658C78.6289 253.904 78.8081 255.173 79.3222 256.323C80.3196 258.766 82.3513 260.305 83.755 259.731C85.1587 259.157 85.4912 256.628 84.4815 254.209C83.558 252.072 81.8834 250.618 80.6521 250.618Z" fill="#FF94E1"/>
<g opacity="0.5">
<path d="M83.1147 261.013C81.2677 261.013 79.2484 259.34 78.1894 256.726C77.6002 255.382 77.3957 253.902 77.5984 252.45C77.6501 251.846 77.8603 251.265 78.208 250.766C78.5557 250.267 79.029 249.866 79.5808 249.604C81.6741 248.749 84.3214 250.545 85.6266 253.684C86.9318 256.823 86.3162 259.951 84.2352 260.806C83.8779 260.943 83.498 261.014 83.1147 261.013ZM80.6521 250.618C80.4364 250.615 80.2225 250.656 80.0241 250.74C79.6732 250.932 79.3766 251.208 79.1614 251.543C78.9463 251.878 78.8195 252.262 78.7928 252.658C78.6294 253.904 78.8081 255.17 79.3099 256.323C80.3196 258.766 82.3513 260.305 83.755 259.731C85.1587 259.157 85.4789 256.628 84.4815 254.209C83.5457 252.072 81.8834 250.618 80.6521 250.618Z" fill="white"/>
</g>
<path d="M109.145 254.527L102.139 265.521C101.958 265.788 101.862 266.103 101.862 266.425C101.862 266.747 101.958 267.061 102.139 267.329L117.136 289.023C117.268 289.215 117.438 289.378 117.637 289.501C117.836 289.624 118.059 289.705 118.291 289.737C118.523 289.769 118.76 289.753 118.985 289.688C119.21 289.624 119.419 289.514 119.599 289.365L127.369 283.074C127.678 282.826 127.887 282.476 127.958 282.088C128.028 281.7 127.954 281.299 127.75 280.961L111.977 254.588C111.836 254.342 111.633 254.136 111.388 253.991C111.143 253.846 110.864 253.767 110.579 253.761C110.293 253.754 110.011 253.822 109.76 253.956C109.509 254.091 109.297 254.287 109.145 254.527Z" fill="#263238"/>
<path d="M96.9549 269.1C96.9549 269.1 116.361 265.899 129.696 293.017L133.008 288.974C133.008 288.974 120.165 267.756 109.699 265.863C99.2328 263.969 95.428 263.957 95.428 263.957L96.9549 269.1Z" fill="#FF94E1"/>
<path opacity="0.5" d="M96.9549 269.136C96.9549 269.136 116.361 265.936 129.696 293.017L133.008 288.986C133.008 288.986 120.165 267.756 109.699 265.875C99.2328 263.994 95.428 264.006 95.428 264.006L96.9549 269.136Z" fill="white"/>
<path d="M47.8248 158.186L109.945 215.5" stroke="#263238" stroke-width="0.5" stroke-linecap="round" stroke-linejoin="round"/>
<path d="M225.875 200.011C225.875 200.011 228.104 196.139 229.04 200.939L225.875 200.011Z" fill="#263238"/>
<path d="M168.803 237.988L223.117 272.728L267.789 254.649L207.614 224.307L168.803 237.988Z" fill="#020202" stroke="#263238" stroke-linecap="round" stroke-linejoin="round"/>
<path d="M203.711 230.756L182.064 238.33" stroke="white" stroke-width="0.5" stroke-linecap="round" stroke-linejoin="round"/>
<path d="M185.463 240.858L224.521 265.289L256.35 253.074" stroke="white" stroke-width="0.5" stroke-linecap="round" stroke-linejoin="round"/>
<path d="M392.597 73.8284C392.597 73.8284 423.7 78.7144 433.711 95.2538C443.722 111.793 436.568 137.787 433.231 146.765C430.214 154.913 439.129 161.716 444.608 166.138C456.922 176.057 463.263 190.056 456.86 205.288C452.871 214.767 435.127 219.018 437.528 230.427C439.929 241.836 450.383 257.837 437.048 269.662C422.974 282.121 401.857 275.696 389.519 264.055C375.642 250.96 370.864 228.179 377.969 210.577C386.588 189.31 391.304 175.605 383.202 166.602C375.1 157.6 364.621 151.944 364.621 139.192C364.621 126.439 376.06 122.652 380.826 109.875C385.591 97.0982 378.917 83.8814 378.917 83.8814L392.597 73.8284Z" fill="#020202" stroke="#263238" stroke-linecap="round" stroke-linejoin="round"/>
<path d="M421.73 95.8889C427.739 100.396 433.206 107.982 431.31 120.319C427.468 145.36 408.814 146.997 420.881 162.779C432.948 178.561 443.931 171.476 441.727 191.069C439.523 210.662 432.406 217.735 432.406 217.735" stroke="white" stroke-miterlimit="10"/>
<path d="M408.863 89.8669C411.268 90.4281 413.605 91.2473 415.832 92.31" stroke="white" stroke-miterlimit="10"/>
<path d="M402.829 96.9517C402.829 96.9517 418.738 101.3 423.676 114.358C428.613 127.416 408.9 138.312 407.767 146.472" stroke="white" stroke-miterlimit="10"/>
<path d="M402.128 309.972C401.906 302.484 401.807 292.492 402.263 281.95C403.223 260.207 429.426 231.367 430.374 226.176C431.322 220.984 428.946 220.068 428.946 220.068L377.008 197.849C352.862 213.582 346.989 259.34 345.548 280.692L402.128 309.972Z" fill="#FF00AA" stroke="#263238" stroke-linecap="round" stroke-linejoin="round"/>
<path d="M423.306 221.448C423.306 221.448 427.665 224.148 423.306 228.472C418.947 232.796 406.954 251.18 402.029 261.991" stroke="#263238" stroke-width="0.5" stroke-linecap="round" stroke-linejoin="round"/>
<path d="M399.874 267.365C399.874 267.365 396.057 276.014 396.611 284.662C397.165 293.31 397.153 301.421 397.153 301.421" stroke="#263238" stroke-width="0.5" stroke-linecap="round" stroke-linejoin="round"/>
<path d="M297.994 209.71C300.284 215.622 303.042 228.338 301.208 235.606C300.26 239.38 297.083 247.308 294.263 254.063L364.289 290.366C364.215 275.904 364.4 253.073 366.259 248.835C369.005 242.471 390.996 182.494 389.654 168.862C388.312 155.23 361.715 135.686 361.715 135.686L365.791 102.461L341.521 117.009C341.521 117.009 338.763 130.177 336.017 133.365C333.272 136.553 310.824 141.085 304.409 149.245C297.994 157.404 300.284 182.421 300.284 183.777C300.284 185.133 295.704 203.846 297.994 209.71Z" fill="white"/>
<g style="mix-blend-mode:multiply" opacity="0.5">
<path d="M389.617 168.813C388.238 155.181 361.678 135.637 361.678 135.637L365.791 102.461L341.521 117.009C341.521 117.009 340.721 120.808 339.564 124.827C341.127 124.692 342.876 124.472 344.834 124.13C354.093 122.506 359.006 119.244 359.006 119.244L354.081 139.79C354.081 139.79 379.151 154.448 385.689 172.234C386.576 174.677 387.524 176.961 388.497 179.233C389.326 175.823 389.702 172.32 389.617 168.813Z" fill="#FF94E1"/>
</g>
<path d="M297.994 209.71C300.284 215.622 303.042 228.338 301.208 235.606C300.26 239.38 297.083 247.308 294.263 254.063L364.289 290.366C364.215 275.904 364.4 253.073 366.259 248.835C369.005 242.471 390.996 182.494 389.654 168.862C388.312 155.23 361.715 135.686 361.715 135.686L365.791 102.461L341.521 117.009C341.521 117.009 338.763 130.177 336.017 133.365C333.272 136.553 310.824 141.085 304.409 149.245C297.994 157.404 300.284 182.421 300.284 183.777C300.284 185.133 295.704 203.846 297.994 209.71Z" stroke="#263238" stroke-linecap="round" stroke-linejoin="round"/>
<path d="M297.994 209.71C300.284 215.622 303.042 228.338 301.208 235.606C300.26 239.38 297.083 247.308 294.263 254.063L364.289 290.366C364.215 275.904 364.4 253.074 366.259 248.835C369.005 242.471 390.996 182.494 389.654 168.862C388.805 160.373 378.19 149.611 370.298 142.685C362.528 150.857 345.671 166.102 333.358 159.31C322.276 153.202 322.978 143.919 324.615 138.398C317.129 141.134 308.177 144.627 304.495 149.318C298.08 157.502 300.37 182.494 300.37 183.85C300.37 185.206 295.704 203.846 297.994 209.71Z" fill="#020202" stroke="#263238" stroke-linecap="round" stroke-linejoin="round"/>
<path d="M338.899 193.561L323.655 186.464C323.655 186.464 319.358 179.38 316.981 179.38C314.605 179.38 313.164 189.31 313.164 189.31C313.164 189.31 305.074 196.872 307.931 204.433C310.787 211.994 321.266 223.342 334.134 219.091C347.001 214.84 343.184 201.611 343.184 201.611C343.184 201.611 348.429 192.633 348.429 190.74C348.429 188.846 338.899 193.561 338.899 193.561Z" fill="white" stroke="#263238" stroke-linecap="round" stroke-linejoin="round"/>
<path d="M306.244 47.0162C306.244 47.0162 309.458 63.3845 308.99 74.7446C308.522 86.1046 303.954 90.6243 305.296 95.6447C306.638 100.665 323.162 119.281 333.235 121.089C343.307 122.897 367.133 107.457 374.004 100.641C380.875 93.8246 381.786 83.8326 380.875 79.7406C379.964 75.6485 376.294 42.9363 362.553 29.7562C348.811 16.576 312.659 17.9441 306.244 47.0162Z" fill="white"/>
<g style="mix-blend-mode:multiply" opacity="0.5">
<path d="M362.626 29.7562C357.492 24.8701 349.217 21.9385 340.536 21.7552L339.97 38.7099C339.97 38.7099 337.236 55.4691 347.05 68.979C356.864 82.489 365.582 86.2879 366.665 91.687C367.749 97.0861 362.823 102.461 350.313 111.695C345.421 115.368 340.179 118.559 334.663 121.223C345.388 121.602 367.49 107.176 374.066 100.641C380.936 93.8246 381.848 83.8326 380.936 79.7406C380.025 75.6485 376.331 42.9363 362.626 29.7562Z" fill="#FF94E1"/>
</g>
<path d="M306.244 47.0162C306.244 47.0162 309.458 63.3845 308.99 74.7446C308.522 86.1046 303.954 90.6243 305.296 95.6447C306.638 100.665 323.162 119.281 333.235 121.089C343.307 122.897 367.133 107.457 374.004 100.641C380.875 93.8246 381.786 83.8326 380.875 79.7405C379.964 75.6485 376.294 42.9363 362.553 29.7562C348.811 16.576 312.659 17.9441 306.244 47.0162Z" stroke="#263238" stroke-linecap="round" stroke-linejoin="round"/>
<path d="M323.655 80.6444C323.655 80.6444 322.276 89.2805 319.961 92.0045C321.758 93.5597 324.002 94.5166 326.376 94.7407" stroke="#263238" stroke-linecap="round" stroke-linejoin="round"/>
<path d="M324.566 102.461C327.55 103.773 330.803 104.375 334.063 104.218C337.323 104.061 340.502 103.149 343.344 101.557" stroke="#263238" stroke-linecap="round" stroke-linejoin="round"/>
<path d="M341.054 76.1004C341.054 77.6151 340.339 78.8366 339.453 78.8366C338.566 78.8366 337.852 77.6151 337.852 76.1004C337.852 74.5858 338.566 73.3765 339.453 73.3765C340.339 73.3765 341.054 74.598 341.054 76.1004Z" fill="#263238"/>
<path d="M318.385 72.4725C318.385 73.975 317.671 75.1965 316.784 75.1965C315.898 75.1965 315.183 73.975 315.183 72.4725C315.183 70.97 315.898 69.7485 316.784 69.7485C317.671 69.7485 318.385 70.97 318.385 72.4725Z" fill="#263238"/>
<path d="M312.204 60.6604C313.488 59.865 314.921 59.3339 316.416 59.0989C317.912 58.8639 319.44 58.9297 320.909 59.2923" stroke="#263238" stroke-linecap="round" stroke-linejoin="round"/>
<path d="M333.727 61.1124C333.727 61.1124 336.473 59.7443 342.433 63.3844" stroke="#263238" stroke-linecap="round" stroke-linejoin="round"/>
<path d="M336.473 34.7522C336.473 34.7522 323.655 45.2083 317.24 51.5602C310.824 57.9121 308.079 62.4683 298.462 58.3885C288.845 54.3086 281.962 40.2001 294.768 23.3921C307.574 6.58402 332.336 1.57581 356.605 8.39186C380.875 15.2079 390.972 30.6601 392.794 47.4804C394.616 64.3006 390.947 82.9165 382.328 87.9247C373.708 92.9329 354.377 72.4725 347.506 59.7444C343.2 51.7005 339.512 43.3461 336.473 34.7522Z" fill="#020202" stroke="#263238" stroke-linecap="round" stroke-linejoin="round"/>
<path d="M336.473 34.7522C336.473 34.7522 301.885 39.8093 300.247 47.4193C298.61 55.0293 309.027 52.8672 309.027 52.8672" stroke="white" stroke-miterlimit="10"/>
<path d="M295.79 39.7726C293.45 44.7319 295.31 47.969 295.31 47.969" stroke="white" stroke-miterlimit="10"/>
<path d="M371.012 18.5793C371.012 18.5793 337.544 13.1435 337.544 27.8261C337.544 27.8261 317.252 20.7536 304.089 30.5501C302.113 31.9789 300.301 33.6173 298.684 35.4362" stroke="white" stroke-miterlimit="10"/>
<path d="M339.231 31.0999C339.231 31.0999 347.764 58.4129 365.569 65.3878" stroke="white" stroke-miterlimit="10"/>
<path d="M356.987 38.4412C363.846 44.0601 373.659 49.6058 385.308 49.0561" stroke="white" stroke-miterlimit="10"/>
<path d="M346.324 27.2887C347.927 29.4767 349.689 31.5464 351.594 33.4818" stroke="white" stroke-miterlimit="10"/>
<path d="M356.63 72.0205L380.456 67.9285V71.1044L356.63 77.0165V72.0205Z" fill="#FF00AA" stroke="#263238" stroke-linecap="round" stroke-linejoin="round"/>
<path d="M398.04 74.849C399.902 63.3592 395.537 53.1085 388.293 51.9535C381.048 50.7984 373.666 59.1764 371.805 70.6663C369.943 82.1561 374.307 92.4068 381.552 93.5618C388.797 94.7168 396.179 86.3388 398.04 74.849Z" fill="#FF00AA" stroke="#263238" stroke-linecap="round" stroke-linejoin="round"/>
<path d="M401.869 75.3064C400.305 84.9808 394.875 92.1511 389.765 91.3327C384.655 90.5143 381.761 82.0248 383.325 72.3504C384.889 62.676 390.307 55.5179 395.429 56.3363C400.551 57.1547 403.433 65.6443 401.869 75.3064Z" fill="#FF00AA" stroke="#263238" stroke-linecap="round" stroke-linejoin="round"/>
<path d="M394.641 34.7521C395.526 47.4687 394.13 60.2401 390.516 72.4725C390.516 72.4725 390.06 79.8016 396.931 76.5646C403.802 73.3276 402.891 45.6602 401.967 34.3001C401.044 22.9401 392.363 26.116 394.641 34.7521Z" fill="white" stroke="#263238" stroke-linecap="round" stroke-linejoin="round"/>
<path d="M369.005 13.3878C369.005 13.3878 379.533 10.6638 385.012 20.2161C390.491 29.7683 389.593 38.3922 397.325 39.2962C405.058 40.2001 405.575 31.5762 401.45 20.6681C397.325 9.75993 388.632 1.57578 376.713 0.671855C364.794 -0.232066 358.932 9.30797 358.932 9.30797C358.932 9.30797 365.335 10.2119 369.005 13.3878Z" fill="#FF00AA" stroke="#263238" stroke-linecap="round" stroke-linejoin="round"/>
<path d="M214.337 278.982C210.541 279.576 206.714 279.955 202.874 280.118C196.926 280.35 194.402 280.35 195.313 281.718C196.225 283.086 203.342 284.442 205.854 284.894C208.366 285.346 214.337 278.982 214.337 278.982Z" fill="white" stroke="#263238" stroke-miterlimit="10"/>
<path d="M368.081 183.349L336.473 254.698C336.473 254.698 250.354 270.578 242.572 270.578C234.79 270.578 219.177 276.026 216 277.907C212.823 279.788 181.683 293.97 187.679 294.849C191.373 295.399 200.928 290.183 200.928 290.183C200.928 290.183 185.808 297.512 187.174 299.723C188.541 301.934 206.876 292.907 206.876 292.907C206.876 292.907 190.117 302.679 193.553 303.229C196.68 303.779 200.46 302.007 203.674 299.723C206.477 298.017 209.495 296.686 212.651 295.766C212.651 295.766 205.263 300.652 204.388 302.875C203.514 305.098 206.223 303.779 208.969 302.875C214.107 300.676 219.075 298.104 223.831 295.179C225.653 293.811 231.157 291.087 234.827 287.911L242.153 281.547C242.153 281.547 291.16 282.903 313.57 281.999C335.98 281.095 347.013 278.823 355.263 270.639C363.513 262.455 386.871 210.65 392.363 196.566C397.855 182.482 394.198 174.298 388.669 164.807" fill="white"/>
<g style="mix-blend-mode:multiply" opacity="0.5">
<path d="M369.362 230.097C354.586 257.666 342.113 266.315 329.036 272.85C315.959 279.385 244.013 280.961 244.013 280.961L247.042 281.681C260.032 281.999 295.457 282.744 313.533 282.011C335.981 281.107 346.976 278.835 355.226 270.651C363.476 262.467 386.834 210.663 392.326 196.578C394.875 190.056 395.441 184.803 394.789 180.088L391.674 182.03C385.219 198.484 377.769 214.535 369.362 230.097Z" fill="#FF94E1"/>
</g>
<path d="M368.081 183.349L336.473 254.698C336.473 254.698 250.354 270.578 242.572 270.578C234.79 270.578 219.177 276.026 216 277.907C212.823 279.788 181.683 293.97 187.679 294.849C191.373 295.399 200.928 290.183 200.928 290.183C200.928 290.183 185.808 297.512 187.174 299.723C188.541 301.934 206.876 292.907 206.876 292.907C206.876 292.907 190.117 302.679 193.553 303.229C196.68 303.779 200.46 302.007 203.674 299.723C206.477 298.017 209.495 296.686 212.651 295.766C212.651 295.766 205.263 300.652 204.388 302.875C203.514 305.098 206.223 303.779 208.969 302.875C214.107 300.676 219.075 298.104 223.831 295.179C225.653 293.811 231.157 291.087 234.827 287.911L242.153 281.547C242.153 281.547 291.16 282.903 313.57 281.999C335.98 281.095 347.013 278.823 355.263 270.639C363.513 262.455 386.871 210.65 392.363 196.566C397.855 182.482 394.198 174.298 388.669 164.807" stroke="#263238" stroke-miterlimit="10"/>
<path d="M367.552 181.554L357.935 206.29C365.003 202.552 378.264 197.531 388.841 205.068C390.331 201.599 391.55 198.667 392.363 196.578C397.867 182.494 394.198 174.31 388.669 164.819" fill="#020202"/>
<path d="M367.552 181.554L357.935 206.29C365.003 202.552 378.264 197.531 388.841 205.068C390.331 201.599 391.55 198.667 392.363 196.578C397.867 182.494 394.198 174.31 388.669 164.819" stroke="#263238" stroke-linecap="round" stroke-linejoin="round"/>
<path d="M299.496 214.376C290.2 217.075 253.481 227.739 250.071 228.533C247.958 229.043 245.816 229.423 243.655 229.669C243.655 229.669 230.825 224.209 227.39 221.717C223.954 219.225 219.829 220.801 217.773 221.717C215.717 222.633 214.079 228.985 218.007 228.985C221.935 228.985 222.587 228.753 226.934 232.393C231.281 236.033 231.293 237.853 234.494 239.209C237.696 240.565 242.978 239.661 245.724 239.209C248.187 238.806 290.766 235.997 301.245 235.447C302.611 229.73 301.245 220.801 299.496 214.376Z" fill="white"/>
<g style="mix-blend-mode:multiply" opacity="0.5">
<path d="M300.962 220.948L245.724 239.27C248.187 238.867 290.766 236.058 301.245 235.508C302.181 231.526 301.836 226.09 300.962 220.948Z" fill="#FF94E1"/>
</g>
<path d="M299.496 214.376C290.2 217.075 253.481 227.739 250.071 228.533C247.958 229.043 245.816 229.423 243.655 229.669C243.655 229.669 230.825 224.209 227.39 221.717C223.954 219.225 219.829 220.801 217.773 221.717C215.717 222.633 214.079 228.985 218.007 228.985C221.935 228.985 222.587 228.753 226.934 232.393C231.281 236.033 231.293 237.853 234.494 239.209C237.696 240.565 242.978 239.661 245.724 239.209C248.187 238.806 290.766 235.997 301.245 235.447C302.611 229.73 301.245 220.801 299.496 214.376Z" stroke="#263238" stroke-linecap="round" stroke-linejoin="round"/>
<path d="M207.688 229.217C207.688 229.217 202.874 231.941 201.532 235.117C200.19 238.293 202.898 237.389 203.822 236.717C204.745 236.046 208.636 232.845 208.636 232.845L207.688 229.217Z" fill="white" stroke="#263238" stroke-linecap="round" stroke-linejoin="round"/>
<path d="M209.067 226.933C208.166 227.507 207.453 228.329 207.015 229.299C206.578 230.269 206.435 231.344 206.605 232.393C207.06 236.253 211.185 241.933 211.653 239.661C212.121 237.389 209.067 226.933 209.067 226.933Z" fill="white" stroke="#263238" stroke-linecap="round" stroke-linejoin="round"/>
<path d="M214.793 223.525C214.793 223.525 210.434 224.661 209.067 226.933C207.701 229.205 209.979 238.989 211.592 239.661C211.934 239.814 212.307 239.887 212.682 239.875C213.057 239.862 213.424 239.766 213.755 239.591C214.087 239.417 214.373 239.169 214.594 238.868C214.814 238.567 214.962 238.22 215.027 237.853C215.483 236.253 214.793 223.525 214.793 223.525Z" fill="white" stroke="#263238" stroke-linecap="round" stroke-linejoin="round"/>
<path d="M220.297 221.253C220.297 221.253 214.559 221.253 213.882 223.989C213.205 226.725 212.047 238.525 213.192 240.345C214.337 242.165 216.172 241.481 217.083 239.209C217.995 236.937 220.297 221.253 220.297 221.253Z" fill="white" stroke="#263238" stroke-linecap="round" stroke-linejoin="round"/>
<path d="M225.506 200.084L216.098 242.581L217.576 248.004C217.598 248.087 217.642 248.163 217.703 248.224C217.764 248.285 217.841 248.329 217.924 248.351C218.008 248.373 218.096 248.373 218.18 248.351C218.263 248.329 218.34 248.285 218.401 248.224L222.514 244.169L229.384 201.22L225.506 200.084Z" fill="#020202"/>
<path d="M234.728 234.384C234.728 234.384 229.458 236.436 225.333 238.256C221.208 240.077 217.083 240.98 217.539 243.485C217.995 245.989 219.829 245.073 222.809 244.169C226.898 242.754 231.123 241.763 235.418 241.213C241.144 240.528 245.724 235.3 245.724 235.3" fill="white"/>
<path d="M234.728 234.384C234.728 234.384 229.458 236.436 225.333 238.256C221.208 240.077 217.083 240.98 217.539 243.485C217.995 245.989 219.829 245.073 222.809 244.169C226.898 242.754 231.123 241.763 235.418 241.213C241.144 240.528 245.724 235.3 245.724 235.3" stroke="#263238" stroke-linecap="round" stroke-linejoin="round"/>
<path d="M216.221 243.24L217.182 247.247C217.229 247.44 217.326 247.618 217.464 247.762C217.602 247.906 217.775 248.012 217.967 248.069C218.159 248.125 218.363 248.131 218.558 248.086C218.753 248.04 218.932 247.945 219.078 247.809L221.331 245.683" stroke="white" stroke-width="0.5" stroke-linecap="round" stroke-linejoin="round"/>
<path d="M216.111 242.581L220.974 221.07" stroke="white" stroke-width="0.5" stroke-linecap="round" stroke-linejoin="round"/>
</svg>
